<svg version="1.2" xmlns="http://www.w3.org/2000/svg" viewBox="0 0 400 400" width="510" height="510">
	<style>
		.s0 { fill: #ffffff;stroke: #000000;stroke-miterlimit:100 } 
	</style>
	<g id="svgg">
		<path id="path0" fill-rule="evenodd" class="s0" d="m162.36 4.94c-59.3 5.53-83.21 21.71-64.51 43.65 14.19 16.64 13.16 27.07-3.48 35.45-50.52 25.41-63.76 87.28-32.19 150.46 13.27 26.55 39.68 61.8 74.06 98.86 15.17 16.36 32.11 35.71 48.96 55.96 3.51 4.23 6.64 7.68 6.95 7.68 0.31 0 0.56-88.39 0.56-196.43v-196.43l-11.96 0.1c-6.58 0.05-14.86 0.37-18.39 0.7zm43.93 195.99c0 156.4 0.18 196.06 0.89 196.02 0.49-0.02 5.71-5.86 11.61-12.97 13.43-16.2 28.78-33.8 43.16-49.48 55.84-60.91 80.2-98.62 88.92-137.68l0.44-1.96h-44.32-44.33l0.21 6.96 0.2 6.97 34.19 0.14c18.81 0.08 34.36 0.31 34.57 0.52 2.43 2.43-16.37 36.39-31.77 57.39-13.94 19.01-18.81 24.77-56.99 67.49-7.86 8.79-16.12 18.05-18.35 20.57l-4.07 4.6-0.04-103.39-0.04-103.4h52.57 52.57l-0.49-4.46c-4.71-43.19-28.84-80.05-65.22-99.61-7.89-4.24-18.8-8.93-22.85-9.82l-2.3-0.51 0.18 42.92 0.18 42.91 27.5 0.09c31.66 0.11 28.69 1.09 24.48-8.12l-2.53-5.54h-17.76-17.76v-25c0-13.75 0.07-25.24 0.16-25.53 0.73-2.49 19.15 10 28.72 19.46 15 14.82 27.44 37.61 30.72 56.25l0.47 2.68h-44.32-44.32v-58.93c0-52.62 0.12-58.93 1.1-58.93 5.77 0 24.64 5.83 36.38 11.24 49.63 22.88 81.81 73.59 81.81 128.94v5.54h-52.5-52.5v78.01c0 75.74 0.03 77.98 1.31 76.61 10.46-11.23 31.12-35.12 42.93-49.62 10.21-12.55 22.47-30.57 29.29-43.04l3.02-5.54-8.09 0.01h-8.11l-2.06 3.66c-7.4 13.18-27.45 40.16-40.01 53.83l-3.93 4.29-0.03-51.96-0.04-51.97h52.08 52.07l0.53-7.68c4.28-62.66-29.17-123.03-83.66-151.04-18.7-9.6-45.3-16.99-61.18-16.99h-2.69zm-27.86-166.74v15.77l-8.39-0.46c-33.57-1.82-64.47-8.74-64.47-14.43 0-6.01 40.99-15.87 68.75-16.54l4.11-0.1zm-48.38 25.24c9.69 1.91 25.39 3.66 39.27 4.38l9.11 0.47-0.02 45.82-0.02 45.82-21.09 21.07-21.09 21.07-33.89-34.25c-18.64-18.83-33.89-34.77-33.89-35.4 0-6.69 18.26-24.04 34.64-32.91 15.49-8.38 21.74-20.21 18.01-34.04-0.56-2.07-0.73-3.75-0.39-3.75 0.34 0 4.55 0.77 9.36 1.72zm-35.57 116.67l31.72 31.96-4.61 4.65-4.62 4.64-7.93-8.21c-4.36-4.52-17.25-17.58-28.65-29.03l-20.72-20.81 0.86-5.98c0.95-6.67 1.48-9.18 1.92-9.18 0.17 0 14.58 14.38 32.03 31.96zm72.55 29.78l-11.44 11.44-4.29-4.25c-2.37-2.33-4.3-4.58-4.3-4.98 0-0.4 6.99-7.73 15.54-16.28l15.53-15.55 0.2 9.09 0.2 9.09zm-60.74 21.49c0 0.41-1.94 2.65-4.3 4.99l-4.29 4.25-15.78-15.7c-17.43-17.34-17.62-17.61-19.87-28.67-2.7-13.25-4.27-14.1 21.38 11.54 12.57 12.57 22.86 23.18 22.86 23.59zm71.78 11.65c-0.49 0.49-11.78-10.66-11.78-11.64 0-0.39 2.65-3.38 5.89-6.64l5.89-5.93 0.2 11.91c0.11 6.55 0.02 12.08-0.2 12.3zm-27.35-6.49l14.06 14.11-22.49 22.85-22.49 22.86-2.9-3.22c-1.6-1.76-3.51-4.04-4.23-5.06l-1.32-1.86 17.64-17.6 17.65-17.6-9.46-9.48c-5.21-5.22-9.46-9.79-9.46-10.17 0-0.71 7.87-8.94 8.55-8.94 0.21 0 6.72 6.35 14.45 14.11zm-28.88 9.65l4.44 4.48-12.01 11.99-12.01 12-3.78-5.09c-2.08-2.79-3.66-5.2-3.52-5.35 1.4-1.48 22.27-22.5 22.34-22.5 0.06 0 2.1 2.01 4.54 4.47zm-35.26 3.31c0.69 0.77 0.93 1.54 0.55 1.78-0.65 0.4-1.45-0.3-2.56-2.24-0.79-1.38 0.64-1.05 2.01 0.46zm91.85 20.07c0 13.35 0.43 12.98-6.73 5.78l-5.62-5.66 5.64-5.77c7.16-7.33 6.71-7.71 6.71 5.65zm-10.9 21.6l10.9 10.89v9.28 9.29l-15.71-15.69-15.71-15.7 4.44-4.48c5.45-5.49 3.3-6.35 16.08 6.41zm-9.87 29.3l20.74 20.89 0.02 10.62c0.01 12.49 0.94 12.45-9.54 0.45-3.94-4.52-10.24-11.58-13.99-15.7-3.75-4.12-7.97-8.78-9.39-10.36-1.41-1.58-5.23-5.76-8.48-9.3-9.06-9.83-8.8-9.01-4.26-13.61 2.11-2.14 3.91-3.89 3.99-3.89 0.09 0 9.5 9.41 20.91 20.9z"/>
	</g>
</svg>