<svg id="svg" xmlns="http://www.w3.org/2000/svg" xmlns:xlink="http://www.w3.org/1999/xlink" width="400" height="400" viewBox="0, 0, 400,400"><g id="svgg"><path id="path0" d="M165.357 7.936 C 106.059 13.473,82.153 29.650,100.852 51.588 C 115.038 68.231,114.014 78.662,97.370 87.036 C 46.845 112.455,33.608 174.325,65.179 237.500 C 78.446 264.048,104.855 299.301,139.240 336.364 C 154.412 352.718,171.346 372.072,188.199 392.321 C 191.714 396.545,194.843 400.000,195.152 400.000 C 195.461 400.000,195.714 311.607,195.714 203.571 L 195.714 7.143 183.750 7.239 C 177.170 7.292,168.893 7.606,165.357 7.936 M209.286 203.929 C 209.286 360.334,209.466 399.991,210.179 399.954 C 210.670 399.928,215.893 394.092,221.786 386.984 C 235.224 370.776,250.570 353.182,264.948 337.500 C 320.794 276.590,345.152 238.878,353.874 199.821 L 354.313 197.857 309.988 197.857 L 265.663 197.857 265.867 204.821 L 266.071 211.786 300.264 211.931 C 319.070 212.011,334.624 212.243,334.827 212.446 C 337.259 214.878,318.461 248.840,303.060 269.838 C 289.118 288.846,284.250 294.611,246.071 337.327 C 238.214 346.118,229.954 355.378,227.716 357.905 L 223.646 362.500 223.609 259.107 L 223.571 155.714 276.142 155.714 L 328.712 155.714 328.224 151.250 C 323.509 108.060,299.376 71.205,263.002 51.645 C 255.105 47.398,244.197 42.708,240.155 41.820 L 237.846 41.313 238.030 84.226 L 238.214 127.140 265.714 127.232 C 297.375 127.337,294.398 128.325,290.187 119.107 L 287.658 113.571 269.901 113.571 L 252.143 113.571 252.143 88.571 C 252.143 74.821,252.214 63.330,252.300 63.036 C 253.030 60.554,271.454 73.039,281.025 82.500 C 296.017 97.322,308.457 120.106,311.736 138.750 L 312.208 141.429 267.890 141.429 L 223.571 141.429 223.571 82.500 C 223.571 29.879,223.689 23.571,224.673 23.571 C 230.442 23.571,249.310 29.402,261.045 34.812 C 310.681 57.691,342.857 108.400,342.857 163.746 L 342.857 169.286 290.357 169.286 L 237.857 169.286 237.857 247.302 C 237.857 323.042,237.895 325.276,239.169 323.909 C 249.632 312.675,270.291 288.794,282.098 274.286 C 292.308 261.740,304.573 243.719,311.389 231.250 L 314.415 225.714 306.315 225.715 L 298.214 225.716 296.155 229.382 C 288.751 242.565,268.699 269.544,256.144 283.214 L 252.208 287.500 252.176 235.536 L 252.143 183.571 304.217 183.571 L 356.291 183.571 356.816 175.893 C 361.096 113.234,327.655 52.858,273.158 24.853 C 254.463 15.247,227.865 7.857,211.983 7.857 L 209.286 7.857 209.286 203.929 M181.429 37.194 L 181.429 52.960 173.036 52.505 C 139.465 50.682,108.571 43.764,108.571 38.069 C 108.571 32.065,149.560 22.203,177.321 21.528 L 181.429 21.429 181.429 37.194 M133.047 62.438 C 142.742 64.350,158.440 66.100,172.321 66.817 L 181.429 67.287 181.412 113.108 L 181.395 158.929 160.301 180.000 L 139.207 201.071 105.318 166.822 C 86.679 147.984,71.429 132.051,71.429 131.413 C 71.429 124.725,89.691 107.380,106.071 98.510 C 121.558 90.125,127.811 78.302,124.078 64.464 C 123.522 62.402,123.346 60.714,123.688 60.714 C 124.030 60.714,128.241 61.490,133.047 62.438 M97.477 179.107 L 129.202 211.071 124.588 215.714 L 119.973 220.357 112.042 212.143 C 107.680 207.625,94.787 194.563,83.390 183.116 L 62.669 162.303 63.526 156.330 C 64.483 149.659,65.011 147.143,65.454 147.143 C 65.618 147.143,80.029 161.527,97.477 179.107 M170.032 208.891 L 158.591 220.332 154.296 216.081 C 151.933 213.743,150.000 211.502,150.000 211.100 C 150.000 210.698,156.991 203.372,165.536 194.819 L 181.071 179.270 181.272 188.360 L 181.474 197.450 170.032 208.891 M109.286 230.375 C 109.286 230.783,107.353 233.028,104.992 235.365 L 100.698 239.614 84.915 223.914 C 67.488 206.578,67.299 206.306,65.048 195.245 C 62.351 181.995,60.781 181.148,86.429 206.786 C 99.000 219.353,109.286 229.968,109.286 230.375 M181.068 242.028 C 180.574 242.522,169.286 231.371,169.286 230.389 C 169.286 229.995,171.938 227.006,175.179 223.748 L 181.071 217.823 181.268 229.727 C 181.376 236.274,181.286 241.810,181.068 242.028 M153.717 235.536 L 167.778 249.643 145.291 272.500 L 122.803 295.357 119.895 292.143 C 118.296 290.375,116.393 288.095,115.667 287.075 L 114.347 285.222 131.992 267.618 L 149.638 250.015 140.176 240.533 C 134.972 235.319,130.714 230.744,130.714 230.368 C 130.714 229.658,138.590 221.429,139.270 221.429 C 139.482 221.429,145.984 227.777,153.717 235.536 M124.836 245.192 L 129.274 249.670 117.266 261.662 L 105.258 273.655 101.479 268.573 C 99.401 265.777,97.816 263.368,97.957 263.218 C 99.360 261.733,120.231 240.714,120.303 240.714 C 120.355 240.714,122.396 242.729,124.836 245.192 M89.579 248.501 C 90.271 249.266,90.511 250.042,90.127 250.278 C 89.478 250.680,88.681 249.981,87.569 248.036 C 86.778 246.653,88.205 246.983,89.579 248.501 M181.429 268.571 C 181.429 281.916,181.860 281.546,174.700 274.344 L 169.077 268.687 174.717 262.916 C 181.878 255.588,181.429 255.209,181.429 268.571 M170.527 290.170 L 181.429 301.054 181.429 310.342 L 181.429 319.631 165.721 303.935 L 150.013 288.240 154.450 283.763 C 159.898 278.266,157.745 277.407,170.527 290.170 M160.654 319.464 L 181.399 340.357 181.414 350.980 C 181.431 363.467,182.363 363.423,171.882 351.429 C 167.935 346.911,161.637 339.845,157.888 335.727 C 154.139 331.610,149.916 326.949,148.503 325.370 C 147.090 323.792,143.271 319.607,140.015 316.071 C 130.957 306.234,131.214 307.057,135.758 302.456 C 137.868 300.320,139.665 298.571,139.751 298.571 C 139.838 298.571,149.244 307.973,160.654 319.464 " stroke="none" fill="#000000" fill-rule="evenodd"></path></g></svg>